<svg width="16" height="16" xmlns="http://www.w3.org/2000/svg" xmlns:xlink="http://www.w3.org/1999/xlink"><defs><circle id="a" cx="8" cy="8" r="8"/></defs><g fill="none" fill-rule="evenodd"><mask id="b" fill="#fff"><use xlink:href="#a"/></mask><use fill="#FFF" xlink:href="#a"/><path fill="#D9272A" mask="url(#b)" d="M0 1h3v14H0zm13 0h3v14h-3zM7.26 5.18l-.57-.14a.1.1 0 00-.12.08v.05l.54 1.9a.1.1 0 01-.16.1l-1.08-.95a.1.1 0 00-.14 0l-.01.02-.22.4a.1.1 0 01-.11.06l-.8-.17a.1.1 0 00-.13.07v.05l.22.78a.1.1 0 01-.02.1l-.34.42a.1.1 0 00.02.14l1.75 1.59a.1.1 0 01.02.1l-.09.3a.1.1 0 00.07.13.1.1 0 00.04 0l1.43-.2c.06 0 .1.03.12.09l.05 1.82c0 .05.04.1.1.1h.45a.1.1 0 00.1-.1V10.1c0-.06.05-.1.1-.1h.02l1.33.2a.1.1 0 00.11-.09v-.04l-.09-.3a.1.1 0 01.03-.1l1.75-1.59a.1.1 0 000-.13l-.33-.43c-.02-.03-.03-.06-.02-.1l.22-.77a.1.1 0 00-.08-.13.1.1 0 00-.04 0l-.8.17a.1.1 0 01-.11-.05l-.23-.4a.1.1 0 00-.15-.03l-1.07.95a.1.1 0 01-.14-.01.1.1 0 01-.02-.1l.53-1.89a.1.1 0 00-.07-.12h-.05l-.57.14a.1.1 0 01-.1-.05l-.53-.98a.1.1 0 00-.18 0l-.52.98a.1.1 0 01-.12.05z"/><circle stroke-opacity=".2" stroke="#000" cx="8" cy="8" r="7.5"/></g></svg>