<svg xmlns="http://www.w3.org/2000/svg" width="17" height="17" xmlns:xlink="http://www.w3.org/1999/xlink"><defs><circle id="b" cx="7.5" cy="7.5" r="7.5"/><filter id="a" width="133.3%" height="133.3%" x="-16.7%" y="-16.7%" filterUnits="objectBoundingBox"><feMorphology radius="1" operator="dilate" in="SourceAlpha" result="shadowSpreadOuter1"/><feOffset in="shadowSpreadOuter1" result="shadowOffsetOuter1"/><feGaussianBlur stdDeviation=".5" in="shadowOffsetOuter1" result="shadowBlurOuter1"/><feComposite in="shadowBlurOuter1" in2="SourceAlpha" operator="out" result="shadowBlurOuter1"/><feColorMatrix values="0 0 0 0 0.63 0 0 0 0 0.6475 0 0 0 0 0.7 0 0 0 0.501132246 0" in="shadowBlurOuter1"/></filter><filter id="c" width="133.3%" height="133.3%" x="-16.7%" y="-16.7%" filterUnits="objectBoundingBox"><feOffset dy="-1" in="SourceAlpha" result="shadowOffsetInner1"/><feComposite in="shadowOffsetInner1" in2="SourceAlpha" operator="arithmetic" k2="-1" k3="1" result="shadowInnerInner1"/><feColorMatrix values="0 0 0 0 0.95 0 0 0 0 0.95 0 0 0 0 0.95 0 0 0 1 0" in="shadowInnerInner1"/></filter><path id="e" d="M8.16 4.15h-2v6h2z"/><filter id="d" width="100%" height="100%" x="0%" y="0%" filterUnits="objectBoundingBox"><feOffset in="SourceAlpha" result="shadowOffsetOuter1"/><feColorMatrix values="0 0 0 0 1 0 0 0 0 1 0 0 0 0 1 0 0 0 1 0" in="shadowOffsetOuter1"/></filter><filter id="f" width="150%" height="116.7%" x="-25%" y="-8.3%" filterUnits="objectBoundingBox"><feGaussianBlur stdDeviation=".5" in="SourceAlpha" result="shadowBlurInner1"/><feOffset in="shadowBlurInner1" result="shadowOffsetInner1"/><feComposite in="shadowOffsetInner1" in2="SourceAlpha" operator="arithmetic" k2="-1" k3="1" result="shadowInnerInner1"/><feColorMatrix values="0 0 0 0 0 0 0 0 0 0 0 0 0 0 0 0 0 0 0.681244339 0" in="shadowInnerInner1"/></filter><path id="g" d="M7.16 13.65c-3.6 0-6.5-2.9-6.5-6.5s2.9-6.5 6.5-6.5 6.5 2.9 6.5 6.5-2.9 6.5-6.5 6.5zm0-2c2.48 0 4.5-2 4.5-4.5s-2.02-4.5-4.5-4.5c-2.5 0-4.5 2.02-4.5 4.5s2 4.5 4.5 4.5z"/></defs><g fill="none" fill-rule="evenodd"><g transform="translate(1 1)"><use fill="#000" filter="url(#a)" xlink:href="#b"/><use fill="#FFF" xlink:href="#b"/><use fill="#000" filter="url(#c)" xlink:href="#b"/><circle cx="7.5" cy="7.5" r="8" stroke="#8FA1B3"/></g><g transform="translate(1.34 1.348)"><use fill="#000" filter="url(#d)" xlink:href="#e"/><use fill="#434A4F" xlink:href="#e"/><use fill="#000" filter="url(#f)" xlink:href="#e"/></g><g transform="translate(1.34 1.348)"><use fill="#1A8CFF" xlink:href="#g"/><path stroke="#177EE6" stroke-width=".5" d="M7.16 13.4c3.45 0 6.25-2.8 6.25-6.25S10.6.9 7.17.9C3.7.9.9 3.7.9 7.15s2.8 6.25 6.26 6.25zm0-1.5c-2.62 0-4.75-2.12-4.75-4.75 0-2.62 2.14-4.75 4.76-4.75 2.62 0 4.75 2.13 4.75 4.75 0 2.63-2.12 4.75-4.74 4.75z"/></g></g></svg>